<svg width="17" height="16" viewBox="0 0 17 16" fill="none" xmlns="http://www.w3.org/2000/svg">
<path fill-rule="evenodd" clip-rule="evenodd" d="M0.000352935 3.09471C0.000352935 4.80077 1.40621 6.18942 3.13559 6.18942C4.86497 6.18942 6.27083 4.80077 6.27083 3.09471C6.27083 1.38768 4.86497 0 3.13559 0C2.89736 0 2.66109 0.0261279 2.43168 0.0793515C2.03561 0.169348 1.78954 0.560299 1.88169 0.950283C1.97385 1.34027 2.36796 1.58606 2.76501 1.4922C2.88462 1.4651 3.0101 1.45155 3.13559 1.45155C4.0542 1.45155 4.80027 2.18797 4.80027 3.09471C4.80027 4.00048 4.0542 4.73786 3.13559 4.73786C2.21698 4.73786 1.47092 4.00048 1.47092 3.09471C1.47092 3.00181 1.47876 2.90988 1.49346 2.82182C1.56111 2.42603 1.28955 2.05249 0.889553 1.98572C0.484658 1.92282 0.110155 2.187 0.0434894 2.58279C0.0150586 2.74924 0.000352935 2.92052 0.000352935 3.09471ZM9.90286 3.82019H15.9312C16.3371 3.82019 16.6665 3.49505 16.6665 3.09442C16.6665 2.69379 16.3371 2.36864 15.9312 2.36864H9.90286C9.49699 2.36864 9.16758 2.69379 9.16758 3.09442C9.16758 3.49505 9.49699 3.82019 9.90286 3.82019ZM6.76459 13.4642H0.735281C0.329406 13.4642 0 13.1391 0 12.7384C0 12.3378 0.329406 12.0127 0.735281 12.0127H6.76459C7.17046 12.0127 7.49987 12.3378 7.49987 12.7384C7.49987 13.1391 7.17046 13.4642 6.76459 13.4642ZM10.3962 12.7386C10.3962 14.4447 11.802 15.8333 13.5314 15.8333C15.2598 15.8333 16.6667 14.4447 16.6667 12.7386C16.6667 12.5644 16.652 12.3932 16.6235 12.2267C16.5569 11.8309 16.1765 11.5638 15.7775 11.6296C15.3775 11.6964 15.1059 12.0699 15.1736 12.4657C15.1883 12.5538 15.1961 12.6457 15.1961 12.7386C15.1961 13.6444 14.4491 14.3818 13.5314 14.3818C12.6128 14.3818 11.8668 13.6444 11.8668 12.7386C11.8668 11.708 12.8863 10.9058 13.9059 11.1361C14.301 11.2261 14.6951 10.9793 14.7863 10.5894C14.8765 10.1994 14.6275 9.80939 14.2314 9.72133C14.002 9.67004 13.7667 9.64392 13.5314 9.64392C11.802 9.64392 10.3962 11.0316 10.3962 12.7386Z" fill="#6F57ED"/>
</svg>
