<svg width="20" height="20" viewBox="0 0 20 20" fill="none" xmlns="http://www.w3.org/2000/svg">
<path fill-rule="evenodd" clip-rule="evenodd" d="M0.00012207 10C0.00012207 4.485 4.48612 0 10.0001 0C15.5141 0 20.0001 4.485 20.0001 10C20.0001 15.514 15.5141 20 10.0001 20C8.60512 20 7.25512 19.719 5.98712 19.162C5.62112 19.002 5.45512 18.575 5.61512 18.209C5.77512 17.841 6.20112 17.676 6.56912 17.837C7.65212 18.312 8.80612 18.553 10.0001 18.553C14.7151 18.553 18.5521 14.715 18.5521 10C18.5521 5.284 14.7151 1.448 10.0001 1.448C5.28412 1.448 1.44812 5.284 1.44812 10C1.44812 11.847 2.02612 13.604 3.12212 15.084C3.35912 15.405 3.29212 15.858 2.97112 16.096C2.64912 16.335 2.19612 16.269 1.95812 15.945C0.677122 14.216 0.00012207 12.16 0.00012207 10ZM8.81997 13.9694H8.85597C9.14897 13.9624 9.75497 13.7104 9.76097 13.7074C10.779 13.2784 12.794 11.9544 13.608 11.0784L13.657 11.0264C13.757 10.9204 13.906 10.7554 13.941 10.7084C14.091 10.5014 14.171 10.2554 14.171 10.0004C14.171 9.7314 14.08 9.4664 13.913 9.2534C13.886 9.2194 13.77 9.0934 13.676 8.9944L13.597 8.9094C12.805 8.0644 10.743 6.6734 9.65997 6.2534C9.49497 6.1884 9.08697 6.0364 8.86397 6.0304C8.65197 6.0274 8.44697 6.0724 8.25097 6.1754C8.00797 6.3074 7.81597 6.5194 7.71397 6.7664C7.63897 6.9424 7.53897 7.4654 7.53797 7.4734C7.43297 8.0524 7.37297 8.9734 7.37497 9.9994C7.37297 10.9694 7.42697 11.8584 7.52197 12.4364C7.52297 12.4424 7.63597 13.0894 7.75397 13.3184C7.95997 13.7164 8.37797 13.9694 8.81997 13.9694ZM8.96197 7.7334C8.96997 7.6874 8.98397 7.6194 8.99897 7.5504C9.05297 7.5704 9.10097 7.5884 9.13197 7.6004C9.99897 7.9374 11.91 9.2254 12.537 9.8964L12.621 9.9854C12.6229 9.98728 12.6246 9.98916 12.6263 9.99104C12.6269 9.99166 12.6274 9.99228 12.628 9.9929C12.6291 9.9942 12.6303 9.9955 12.6315 9.99679C12.6326 9.998 12.6338 9.9992 12.635 10.0004C12.624 10.0104 12.614 10.0214 12.605 10.0314C12.604 10.0334 12.552 10.0924 12.547 10.0914C11.94 10.7474 10.126 11.9824 9.19997 12.3724C9.17612 12.3821 9.1454 12.394 9.11185 12.407L9.11175 12.407C9.07639 12.4207 9.03789 12.4355 9.00097 12.4504C8.97997 12.3584 8.96097 12.2634 8.95097 12.2014C8.86897 11.7064 8.82097 10.8824 8.82197 9.9994C8.82097 9.0834 8.87497 8.2144 8.96197 7.7334Z" fill="#A3A6AB"/>
</svg>
