<svg width="17" height="17" viewBox="0 0 17 17" fill="none" xmlns="http://www.w3.org/2000/svg">
<path d="M16.463 15.5054L13.5985 12.7049V12.7049L13.5313 12.6028C13.4065 12.4785 13.2358 12.4085 13.0576 12.4085C12.8795 12.4085 12.7088 12.4785 12.584 12.6028V12.6028C10.1496 14.8361 6.39846 14.9575 3.81834 12.8864C1.23822 10.8154 0.629724 7.19447 2.3964 4.42514C4.16308 1.65581 7.75673 0.597372 10.794 1.95178C13.8314 3.30619 15.3698 6.65316 14.3892 9.77299C14.3186 9.99838 14.3763 10.2435 14.5406 10.416C14.7049 10.5885 14.9509 10.6621 15.1859 10.6092C15.4208 10.5563 15.6091 10.3849 15.6797 10.1595V10.1595C16.852 6.4572 15.0815 2.47296 11.5134 0.784215C7.94541 -0.904532 3.6507 0.20902 1.40755 3.40451C-0.835608 6.60001 -0.354017 10.9185 2.54078 13.5663C5.43557 16.214 9.87482 16.3966 12.9868 13.9957L15.523 16.4754C15.785 16.7304 16.2085 16.7304 16.4704 16.4754C16.7321 16.2168 16.7321 15.8005 16.4704 15.5419V15.5419L16.463 15.5054Z" fill="#A3A6AB"/>
</svg>
