<svg width="13" height="13" viewBox="0 0 13 13" fill="none" xmlns="http://www.w3.org/2000/svg">
<path fill-rule="evenodd" clip-rule="evenodd" d="M0 6.5C0 2.91525 2.9159 0 6.5 0C10.0841 0 13 2.91525 13 6.5C13 10.0841 10.0841 13 6.5 13C4.46745 13 2.58895 12.075 1.34745 10.4637C1.1882 10.2563 1.2272 9.9593 1.4339 9.8007C1.6406 9.6408 1.93635 9.68045 2.09625 9.8865C3.1577 11.2645 4.76255 12.0549 6.5 12.0549C9.5628 12.0549 12.0549 9.56345 12.0549 6.5C12.0549 3.4372 9.5628 0.9451 6.5 0.9451C3.4372 0.9451 0.94575 3.4372 0.94575 6.5C0.94575 6.7847 0.96655 7.06745 1.0088 7.34435C1.0478 7.60175 0.871 7.8429 0.61295 7.88255C0.3536 7.92545 0.11375 7.7454 0.07475 7.48735C0.02535 7.16365 0 6.8315 0 6.5ZM5.80715 3.79429C5.80715 3.53299 6.01905 3.32109 6.2797 3.32109C6.54035 3.32109 6.75225 3.53299 6.75225 3.79429V6.68419L8.97785 8.01149C9.2021 8.14539 9.27555 8.43529 9.14165 8.65954C9.0539 8.80709 8.8966 8.88964 8.73605 8.88964C8.6535 8.88964 8.56965 8.86819 8.49425 8.82334L6.03725 7.35824C5.8949 7.27244 5.80715 7.11839 5.80715 6.95199V3.79429Z" fill="#A3A6AB"/>
</svg>
