<svg width="335" height="150" viewBox="0 0 335 150" fill="none" xmlns="http://www.w3.org/2000/svg">
<g clip-path="url(#clip0_1138_1567)">
<path d="M114.726 164.304C59.3947 211.269 -32.0234 192.464 -89.4492 121.97C-146.875 51.4769 -148.313 -43.7029 -92.981 -90.6675C-37.6494 -137.632 53.7686 -118.827 111.194 -48.3333C168.62 22.16 170.058 117.34 114.726 164.304Z" stroke="#8268F6"/>
<path d="M83.4471 125.914C36.4581 165.798 -41.2014 149.839 -89.9975 89.9395C-138.794 30.0396 -139.998 -50.8122 -93.0093 -90.6959C-46.0203 -130.58 31.6391 -114.621 80.4353 -54.7214C129.231 5.1785 130.436 86.0303 83.4471 125.914Z" stroke="#8268F6"/>
<path d="M52.1675 87.5238C13.5209 120.326 -50.3798 107.216 -90.5463 57.9091C-130.713 8.6026 -131.685 -57.9213 -93.0382 -90.7239C-54.3916 -123.527 9.50911 -110.416 49.6756 -61.1092C89.8421 -11.8027 90.814 54.7212 52.1675 87.5238Z" stroke="#8268F6"/>
<path d="M486.726 164.304C431.395 211.269 339.977 192.464 282.551 121.97C225.125 51.4769 223.687 -43.7029 279.019 -90.6675C334.351 -137.632 425.769 -118.827 483.194 -48.3333C540.62 22.16 542.058 117.34 486.726 164.304Z" stroke="#8268F6"/>
<path d="M455.447 125.914C408.458 165.798 330.799 149.839 282.002 89.9395C233.206 30.0396 232.002 -50.8122 278.991 -90.6959C325.98 -130.58 403.639 -114.621 452.435 -54.7214C501.231 5.1785 502.436 86.0303 455.447 125.914Z" stroke="#8268F6"/>
<path d="M424.167 87.5238C385.521 120.326 321.62 107.216 281.454 57.9091C241.287 8.6026 240.315 -57.9213 278.962 -90.7239C317.608 -123.527 381.509 -110.416 421.676 -61.1092C461.842 -11.8027 462.814 54.7212 424.167 87.5238Z" stroke="#8268F6"/>
</g>
<defs>
<clipPath id="clip0_1138_1567">
<rect width="335" height="150" fill="white"/>
</clipPath>
</defs>
</svg>
