<svg width="24" height="24" viewBox="0 0 24 24" fill="none" xmlns="http://www.w3.org/2000/svg">
<path fill-rule="evenodd" clip-rule="evenodd" d="M12.0001 21.9999C6.48009 21.9999 2.00009 17.5099 2.00009 11.9999C2.00009 6.47988 6.48009 1.99988 12.0001 1.99988C17.5101 1.99988 22.0001 6.47988 22.0001 11.9999C22.0001 17.5099 17.5101 21.9999 12.0001 21.9999ZM16.0001 10.0199C15.7001 9.72988 15.2301 9.72988 14.9401 10.0299L12.0001 12.9799L9.06009 10.0299C8.77009 9.72988 8.29009 9.72988 8.00009 10.0199C7.70009 10.3199 7.70009 10.7899 8.00009 11.0799L11.4701 14.5699C11.6101 14.7099 11.8001 14.7899 12.0001 14.7899C12.2001 14.7899 12.3901 14.7099 12.5301 14.5699L16.0001 11.0799C16.1501 10.9399 16.2201 10.7499 16.2201 10.5599C16.2201 10.3599 16.1501 10.1699 16.0001 10.0199Z" fill="#F7F6FA"/>
</svg>
