<svg width="20" height="19" viewBox="0 0 20 19" fill="none" xmlns="http://www.w3.org/2000/svg">
<path fill-rule="evenodd" clip-rule="evenodd" d="M13.85 0.000159672C14.481 0.000159672 15.111 0.0891597 15.71 0.29016C19.401 1.49016 20.731 5.54016 19.62 9.08016C18.99 10.8892 17.96 12.5402 16.611 13.8892C14.68 15.7592 12.561 17.4192 10.28 18.8492L10.03 19.0002L9.77002 18.8392C7.48102 17.4192 5.35002 15.7592 3.40102 13.8792C2.06102 12.5302 1.03002 10.8892 0.390017 9.08016C-0.739983 5.54016 0.590017 1.49016 4.32102 0.26916C4.61102 0.16916 4.91002 0.0991597 5.21002 0.0601597H5.33002C5.61102 0.0191597 5.89002 0.000159672 6.17002 0.000159672H6.28002C6.91002 0.0191597 7.52002 0.12916 8.11102 0.33016H8.17002C8.21002 0.34916 8.24002 0.37016 8.26002 0.38916C8.48102 0.46016 8.69002 0.54016 8.89002 0.65016L9.27002 0.82016C9.36184 0.869131 9.4649 0.943959 9.55398 1.00863C9.61041 1.0496 9.66123 1.0865 9.70002 1.11016C9.71634 1.11979 9.73292 1.12947 9.74964 1.13923C9.83538 1.18928 9.9247 1.24142 10 1.29916C11.111 0.45016 12.46 -0.00984033 13.85 0.000159672ZM16.51 7.20016C16.92 7.18916 17.27 6.86016 17.3 6.43916V6.32016C17.33 4.91916 16.481 3.65016 15.19 3.16016C14.78 3.01916 14.33 3.24016 14.18 3.66016C14.04 4.08016 14.26 4.54016 14.68 4.68916C15.321 4.92916 15.75 5.56016 15.75 6.25916V6.29016C15.731 6.51916 15.8 6.74016 15.94 6.91016C16.08 7.08016 16.29 7.17916 16.51 7.20016Z" fill="#6F57ED"/>
<path fill-rule="evenodd" clip-rule="evenodd" d="M13.85 0.000159672C14.481 0.000159672 15.111 0.0891597 15.71 0.29016C19.401 1.49016 20.731 5.54016 19.62 9.08016C18.99 10.8892 17.96 12.5402 16.611 13.8892C14.68 15.7592 12.561 17.4192 10.28 18.8492L10.03 19.0002L9.77002 18.8392C7.48102 17.4192 5.35002 15.7592 3.40102 13.8792C2.06102 12.5302 1.03002 10.8892 0.390017 9.08016C-0.739983 5.54016 0.590017 1.49016 4.32102 0.26916C4.61102 0.16916 4.91002 0.0991597 5.21002 0.0601597H5.33002C5.61102 0.0191597 5.89002 0.000159672 6.17002 0.000159672H6.28002C6.91002 0.0191597 7.52002 0.12916 8.11102 0.33016H8.17002C8.21002 0.34916 8.24002 0.37016 8.26002 0.38916C8.48102 0.46016 8.69002 0.54016 8.89002 0.65016L9.27002 0.82016C9.36184 0.869131 9.4649 0.943959 9.55398 1.00863C9.61041 1.0496 9.66123 1.0865 9.70002 1.11016C9.71634 1.11979 9.73292 1.12947 9.74964 1.13923C9.83538 1.18928 9.9247 1.24142 10 1.29916C11.111 0.45016 12.46 -0.00984033 13.85 0.000159672ZM16.51 7.20016C16.92 7.18916 17.27 6.86016 17.3 6.43916V6.32016C17.33 4.91916 16.481 3.65016 15.19 3.16016C14.78 3.01916 14.33 3.24016 14.18 3.66016C14.04 4.08016 14.26 4.54016 14.68 4.68916C15.321 4.92916 15.75 5.56016 15.75 6.25916V6.29016C15.731 6.51916 15.8 6.74016 15.94 6.91016C16.08 7.08016 16.29 7.17916 16.51 7.20016Z" fill="url(#paint0_radial_1097_2588)" fill-opacity="0.2"/>
<defs>
<radialGradient id="paint0_radial_1097_2588" cx="0" cy="0" r="1" gradientUnits="userSpaceOnUse" gradientTransform="translate(4.5 4) rotate(52.5238) scale(18.9011 22.7983)">
<stop stop-color="white"/>
<stop offset="1" stop-color="#7058ED"/>
</radialGradient>
</defs>
</svg>
