<svg width="17" height="15" viewBox="0 0 17 15" fill="none" xmlns="http://www.w3.org/2000/svg">
<path d="M0.977048 13.3421L2.03494 13.7842V6.65526L0.116521 11.2816C-0.207163 12.0868 0.16389 13.0105 0.977048 13.3421ZM16.3718 10.4211L12.456 0.986842C12.3403 0.700694 12.1433 0.454719 11.8894 0.27933C11.6354 0.103941 11.3356 0.00682829 11.027 0C10.8218 0 10.6086 0.031579 10.4034 0.118421L4.58494 2.52632C4.30412 2.64549 4.06336 2.84272 3.89125 3.09459C3.71913 3.34647 3.62287 3.64243 3.61389 3.94737C3.60599 4.14474 3.64547 4.37368 3.71652 4.57895L7.66389 14.0132C7.89284 14.6289 8.47705 14.9921 9.09284 15C9.2981 15 9.50336 14.9605 9.70073 14.8816L15.5113 12.4737C15.8975 12.3155 16.2051 12.0104 16.3665 11.6255C16.5279 11.2406 16.5298 10.8074 16.3718 10.4211ZM5.20073 4.73684C4.99135 4.73684 4.79054 4.65367 4.64249 4.50561C4.49443 4.35756 4.41126 4.15675 4.41126 3.94737C4.41126 3.73799 4.49443 3.53718 4.64249 3.38913C4.79054 3.24107 4.99135 3.15789 5.20073 3.15789C5.63494 3.15789 5.99021 3.51316 5.99021 3.94737C5.99021 4.38158 5.63494 4.73684 5.20073 4.73684ZM3.62178 13.4211C3.62178 13.8398 3.78814 14.2414 4.08425 14.5375C4.38036 14.8336 4.78197 15 5.20073 15H6.34547L3.62178 8.41579V13.4211Z" fill="#A3A6AB"/>
</svg>
