<svg width="20" height="20" viewBox="0 0 20 20" fill="none" xmlns="http://www.w3.org/2000/svg">
<path fill-rule="evenodd" clip-rule="evenodd" d="M14.6026 6.16342V7.4412C16.0379 7.88921 17.0837 9.18853 17.0837 10.7404V14.8545C17.0837 16.7757 15.4909 18.3334 13.5272 18.3334H6.47432C4.50979 18.3334 2.91699 16.7757 2.91699 14.8545V10.7404C2.91699 9.18853 3.96362 7.88921 5.39806 7.4412V6.16342C5.40653 3.67907 7.46421 1.66675 9.98762 1.66675C12.5449 1.66675 14.6026 3.67907 14.6026 6.16342ZM10.0046 3.11595C11.7235 3.11595 13.1207 4.48234 13.1207 6.16342V7.2615H6.87993V6.14686C6.8884 4.47406 8.28559 3.11595 10.0046 3.11595ZM10.7413 13.7125C10.7413 14.1183 10.411 14.4413 9.99609 14.4413C9.58964 14.4413 9.25939 14.1183 9.25939 13.7125V11.8741C9.25939 11.4766 9.58964 11.1536 9.99609 11.1536C10.411 11.1536 10.7413 11.4766 10.7413 11.8741V13.7125Z" fill="#9E9E9E"/>
</svg>
