<svg width="35" height="36" viewBox="0 0 35 36" fill="none" xmlns="http://www.w3.org/2000/svg">
<rect y="0.5" width="35" height="35" rx="17.5" fill="#EEB14B" fill-opacity="0.3"/>
<path fill-rule="evenodd" clip-rule="evenodd" d="M22.017 15.047V16.197C23.3088 16.6002 24.25 17.7696 24.25 19.1663V22.869C24.25 24.5981 22.8165 26 21.0492 26H14.7016C12.9335 26 11.5 24.5981 11.5 22.869V19.1663C11.5 17.7696 12.442 16.6002 13.733 16.197V15.047C13.7406 12.8111 15.5925 11 17.8636 11C20.1651 11 22.017 12.8111 22.017 15.047ZM17.8787 12.3043C19.4258 12.3043 20.6832 13.534 20.6832 15.047V16.0353H15.0665V15.0321C15.0741 13.5266 16.3316 12.3043 17.8787 12.3043ZM18.5418 21.8412C18.5418 22.2064 18.2446 22.4971 17.8712 22.4971C17.5054 22.4971 17.2081 22.2064 17.2081 21.8412V20.1866C17.2081 19.8289 17.5054 19.5382 17.8712 19.5382C18.2446 19.5382 18.5418 19.8289 18.5418 20.1866V21.8412Z" fill="#EEB14B"/>
</svg>
