<svg width="17" height="20" viewBox="0 0 17 20" fill="none" xmlns="http://www.w3.org/2000/svg">
<path fill-rule="evenodd" clip-rule="evenodd" d="M15.2071 6.79633C15.2071 8.05226 15.539 8.79253 16.2695 9.64559C16.8231 10.2741 17 11.0808 17 11.956C17 12.8302 16.7128 13.6601 16.1373 14.3339C15.384 15.1417 14.3215 15.6573 13.2372 15.747C11.6659 15.8809 10.0937 15.9937 8.5005 15.9937C6.90634 15.9937 5.33505 15.9263 3.76375 15.747C2.67846 15.6573 1.61602 15.1417 0.863666 14.3339C0.28822 13.6601 0 12.8302 0 11.956C0 11.0808 0.177901 10.2741 0.730488 9.64559C1.48384 8.79253 1.79392 8.05226 1.79392 6.79633V6.3703C1.79392 4.68834 2.21333 3.58852 3.077 2.51186C4.36106 0.941697 6.41935 0 8.45577 0H8.54522C10.6254 0 12.7502 0.987019 14.0125 2.62466C14.8314 3.67916 15.2071 4.73265 15.2071 6.3703V6.79633ZM5.57367 18.0608C5.57367 17.5573 6.03582 17.3266 6.46318 17.2279C6.96309 17.1222 10.0093 17.1222 10.5092 17.2279C10.9366 17.3266 11.3987 17.5573 11.3987 18.0608C11.3738 18.5402 11.0926 18.9653 10.704 19.2352C10.2001 19.628 9.60875 19.8767 8.99057 19.9664C8.64868 20.0107 8.31276 20.0117 7.98279 19.9664C7.36362 19.8767 6.77227 19.628 6.26938 19.2342C5.87978 18.9653 5.59852 18.5402 5.57367 18.0608Z" fill="white"/>
</svg>
