<svg width="16" height="20" viewBox="0 0 16 20" fill="none" xmlns="http://www.w3.org/2000/svg">
<path fill-rule="evenodd" clip-rule="evenodd" d="M13.294 5.29105C13.294 8.22808 10.9391 10.5831 8 10.5831C5.0619 10.5831 2.70601 8.22808 2.70601 5.29105C2.70601 2.35402 5.0619 0 8 0C10.9391 0 13.294 2.35402 13.294 5.29105ZM8 20C3.66237 20 0 19.295 0 16.575C0 13.8539 3.68538 13.1739 8 13.1739C12.3386 13.1739 16 13.8789 16 16.599C16 19.32 12.3146 20 8 20Z" fill="#6F57ED"/>
<path fill-rule="evenodd" clip-rule="evenodd" d="M13.294 5.29105C13.294 8.22808 10.9391 10.5831 8 10.5831C5.0619 10.5831 2.70601 8.22808 2.70601 5.29105C2.70601 2.35402 5.0619 0 8 0C10.9391 0 13.294 2.35402 13.294 5.29105ZM8 20C3.66237 20 0 19.295 0 16.575C0 13.8539 3.68538 13.1739 8 13.1739C12.3386 13.1739 16 13.8789 16 16.599C16 19.32 12.3146 20 8 20Z" fill="url(#paint0_radial_1097_2592)" fill-opacity="0.2"/>
<defs>
<radialGradient id="paint0_radial_1097_2592" cx="0" cy="0" r="1" gradientUnits="userSpaceOnUse" gradientTransform="translate(2 5.5) rotate(48.2397) scale(18.7683 15.0147)">
<stop stop-color="white"/>
<stop offset="1" stop-color="#7058ED"/>
</radialGradient>
</defs>
</svg>
